<svg xmlns="http://www.w3.org/2000/svg" viewBox="0 0 920 420" role="img" aria-label="Lumen architecture">
  <defs>
    <marker id="arr" markerWidth="8" markerHeight="8" refX="6" refY="4" orient="auto">
      <polygon points="0 0, 8 4, 0 8" fill="#94a3b8"/>
    </marker>
  </defs>
  <rect width="920" height="420" fill="#fafaf7"/>
  <text x="460" y="36" text-anchor="middle" font-family="system-ui,sans-serif" font-size="20" font-weight="700" fill="#0f172a">Lumen - high-level architecture</text>
  <rect x="40" y="80" width="160" height="72" rx="12" fill="#fff" stroke="#e2e8f0" stroke-width="2"/>
  <text x="120" y="118" text-anchor="middle" font-family="system-ui,sans-serif" font-size="14" font-weight="600" fill="#334155">Browser</text>
  <text x="120" y="138" text-anchor="middle" font-family="system-ui,sans-serif" font-size="11" fill="#64748b">React / Studio UI</text>
  <rect x="260" y="70" width="200" height="92" rx="12" fill="#fff7ed" stroke="#fdba74" stroke-width="2"/>
  <text x="360" y="108" text-anchor="middle" font-family="system-ui,sans-serif" font-size="14" font-weight="600" fill="#9a3412">Next.js 16</text>
  <text x="360" y="128" text-anchor="middle" font-family="system-ui,sans-serif" font-size="11" fill="#c2410c">App Router + Route Handlers</text>
  <text x="360" y="148" text-anchor="middle" font-family="system-ui,sans-serif" font-size="11" fill="#c2410c">NDJSON /api/generate</text>
  <path d="M200 116 L260 116" stroke="#94a3b8" stroke-width="2" marker-end="url(#arr)"/>
  <text x="500" y="88" font-family="system-ui,sans-serif" font-size="12" font-weight="600" fill="#475569">Providers (server)</text>
  <rect x="500" y="100" width="100" height="44" rx="8" fill="#fff" stroke="#cbd5e1"/>
  <text x="550" y="127" text-anchor="middle" font-family="system-ui,sans-serif" font-size="11" fill="#334155">OpenAI</text>
  <rect x="610" y="100" width="100" height="44" rx="8" fill="#fff" stroke="#cbd5e1"/>
  <text x="660" y="127" text-anchor="middle" font-family="system-ui,sans-serif" font-size="11" fill="#334155">Tavily</text>
  <rect x="720" y="100" width="100" height="44" rx="8" fill="#fff" stroke="#cbd5e1"/>
  <text x="770" y="127" text-anchor="middle" font-family="system-ui,sans-serif" font-size="11" fill="#334155">Pioneer</text>
  <rect x="500" y="154" width="100" height="44" rx="8" fill="#fff" stroke="#cbd5e1"/>
  <text x="550" y="181" text-anchor="middle" font-family="system-ui,sans-serif" font-size="11" fill="#334155">fal</text>
  <rect x="610" y="154" width="100" height="44" rx="8" fill="#fff" stroke="#cbd5e1"/>
  <text x="660" y="181" text-anchor="middle" font-family="system-ui,sans-serif" font-size="11" fill="#334155">SLNG</text>
  <rect x="720" y="154" width="100" height="44" rx="8" fill="#fff" stroke="#cbd5e1"/>
  <text x="770" y="181" text-anchor="middle" font-family="system-ui,sans-serif" font-size="11" fill="#334155">S3 (opt)</text>
  <path d="M460 116 L500 122" stroke="#94a3b8" stroke-width="2"/>
  <rect x="320" y="280" width="280" height="88" rx="12" fill="#f1f5f9" stroke="#94a3b8" stroke-width="2"/>
  <text x="460" y="318" text-anchor="middle" font-family="system-ui,sans-serif" font-size="14" font-weight="600" fill="#334155">PostgreSQL + Drizzle</text>
  <text x="460" y="340" text-anchor="middle" font-family="system-ui,sans-serif" font-size="11" fill="#64748b">lessons, versions, generation runs</text>
  <path d="M360 162 L460 280" stroke="#94a3b8" stroke-width="2" fill="none"/>
  <text x="460" y="400" text-anchor="middle" font-family="system-ui,sans-serif" font-size="10" fill="#94a3b8">See docs/PROJECT.md for full spec</text>
</svg>
